<svg width="22" height="22" viewBox="0 0 22 22" fill="none" xmlns="http://www.w3.org/2000/svg">
<path d="M12.1903 0C12.7665 0 13.3339 0 13.9102 0C13.9634 0.00886565 14.0077 0.0265969 14.0609 0.0265969C14.9032 0.124119 15.7277 0.310298 16.499 0.656058C19.4778 1.97704 21.2953 4.22891 21.8716 7.44714C22.1819 9.16708 21.9602 10.8427 21.2776 12.4385C20.4442 14.3889 19.07 15.8429 17.2082 16.8359C15.5681 17.7047 13.8215 18.015 11.9775 17.7668C10.8427 17.616 9.76995 17.2526 8.76813 16.6763C8.39577 16.4635 8.32484 16.4812 8.02341 16.7738C6.60491 18.1923 5.19527 19.6019 3.77677 21.0205C3.62605 21.1623 3.47533 21.313 3.31575 21.4371C2.77495 21.8538 2.16322 22.1021 1.4717 21.9513C0.700386 21.7829 0.239373 21.251 0 20.5062C0 20.2669 0 20.0186 0 19.7793C0.132985 19.1587 0.469879 18.6533 0.922027 18.21C2.16322 16.9777 3.39554 15.7454 4.62787 14.5131C4.85838 14.2826 5.08002 14.0609 5.31052 13.8304C5.45237 13.6886 5.47897 13.5378 5.38145 13.3605C5.29279 13.1921 5.19527 13.0236 5.10661 12.8463C4.16685 10.9934 3.88315 9.0341 4.32644 6.98613C4.66333 5.39918 5.40805 4.01614 6.51625 2.82814C7.68652 1.56922 9.10502 0.726983 10.7629 0.283701C11.2328 0.150716 11.7115 0.0886565 12.1903 0ZM13.0591 2.36713C9.55717 2.3494 6.51625 5.14208 6.51625 8.90998C6.51625 12.5626 9.37099 15.4528 13.0591 15.4617C16.827 15.4706 19.6108 12.4296 19.6108 8.90111C19.6108 5.30166 16.6586 2.34053 13.0591 2.36713Z" fill="#1E7DBC"/>
<path d="M13.4852 3.54626C14.2476 3.54626 14.9746 3.70585 15.675 3.98068C16.1892 4.18459 16.4286 4.70766 16.2424 5.20414C16.0651 5.69175 15.5509 5.93999 15.0367 5.75381C14.4427 5.54104 13.8487 5.40805 13.2103 5.46124C11.7475 5.5765 10.6748 6.29462 9.97437 7.58013C9.91231 7.68652 9.86798 7.80178 9.80592 7.8993C9.53109 8.36918 9.01688 8.52876 8.55587 8.29825C8.09485 8.06775 7.90867 7.54467 8.13032 7.03933C8.44948 6.31235 8.8839 5.67402 9.46016 5.13322C10.595 4.08707 11.9337 3.564 13.4852 3.54626Z" fill="#1E7DBC"/>
</svg>
