<svg width="140" height="12" viewBox="0 0 140 12" fill="none" xmlns="http://www.w3.org/2000/svg">
<path d="M23.0497 6.7105C23.4519 7.20624 23.653 7.7885 23.653 8.45494C23.653 9.38328 23.342 10.1152 22.7223 10.653C22.1026 11.1909 21.2023 11.4598 20.0238 11.4598H15.2815V0.415527H19.9279C21.0433 0.415527 21.9015 0.661058 22.5025 1.15212C23.1011 1.64319 23.4028 2.33067 23.4028 3.21693C23.4028 3.90442 23.2227 4.46797 22.8626 4.90759C22.5025 5.34487 22.0301 5.63249 21.4479 5.76812C22.112 5.89907 22.6475 6.21475 23.0497 6.7105ZM17.4866 5.04322H19.4742C20.0261 5.04322 20.447 4.92162 20.7346 4.67609C21.0223 4.43056 21.1649 4.0798 21.1649 3.61913C21.1649 3.15847 21.0246 2.80537 20.7417 2.55516C20.461 2.30495 20.0284 2.17868 19.4438 2.17868H17.4889V5.04322H17.4866ZM20.9287 9.27572C21.2421 9.02083 21.3987 8.64669 21.3987 8.15797C21.3987 7.6669 21.2397 7.29042 20.9217 7.02384C20.6037 6.75726 20.1524 6.62398 19.5678 6.62398H17.4866V9.65922H19.5818C20.1664 9.65922 20.6154 9.53061 20.9287 9.27572Z" fill="#221E1E"/>
<path d="M31.9262 9.23596H27.4996L26.7186 11.4574H24.3872L28.456 0.537109H30.9745L35.0269 11.4574H32.6955L31.9262 9.23596ZM31.3323 7.56166L29.7047 2.89889L28.0772 7.56166H31.3323Z" fill="#221E1E"/>
<path d="M44.6307 1.36722C45.538 2.07576 46.1367 3.04152 46.429 4.26216H44.114C43.8731 3.66821 43.5013 3.19819 42.9962 2.85445C42.4911 2.5107 41.8831 2.33766 41.1722 2.33766C40.5876 2.33766 40.0615 2.48498 39.5915 2.77494C39.1215 3.06724 38.7567 3.48348 38.4971 4.02599C38.2376 4.5685 38.1066 5.20454 38.1066 5.93412C38.1066 6.65434 38.2376 7.28571 38.4971 7.82822C38.7567 8.37073 39.1238 8.78697 39.5915 9.07927C40.0615 9.37157 40.5876 9.51655 41.1722 9.51655C41.8808 9.51655 42.4888 9.34585 42.9962 8.99976C43.5013 8.65602 43.8754 8.186 44.114 7.59205H46.429C46.1367 8.81269 45.538 9.77611 44.6307 10.487C43.7234 11.1955 42.58 11.551 41.205 11.551C40.1504 11.551 39.2197 11.3124 38.4129 10.8401C37.6039 10.3654 36.9795 9.70128 36.5352 8.84543C36.0909 7.98957 35.8711 7.02147 35.8711 5.93412C35.8711 4.83975 36.0932 3.86464 36.5352 3.00878C36.9795 2.15293 37.6015 1.48882 38.4036 1.01413C39.208 0.539434 40.141 0.303253 41.205 0.303253C42.58 0.303253 43.7234 0.656349 44.6307 1.36722Z" fill="#221E1E"/>
<path d="M52.3753 5.8406L57.0521 11.4574H54.377L50.2941 6.40416V11.4574H48.0867V0.413177H50.2941V5.37292L54.3933 0.413177H57.0521L52.3753 5.8406Z" fill="#221E1E"/>
<path d="M69.1933 0.413177V2.16464H66.1417V11.4574H63.9366V2.16464H60.9014V0.413177H69.1933Z" fill="#221E1E"/>
<path d="M78.3996 0.974374C79.2391 1.45375 79.9008 2.12487 80.3872 2.9854C80.8736 3.84593 81.1145 4.81871 81.1145 5.90373C81.1145 6.98874 80.8713 7.96385 80.3872 8.82906C79.9032 9.69427 79.2391 10.3677 78.3996 10.8471C77.5601 11.3265 76.6224 11.5673 75.5912 11.5673C74.5576 11.5673 73.6222 11.3265 72.7827 10.8471C71.9433 10.3677 71.2815 9.69427 70.7951 8.82906C70.3111 7.96385 70.0679 6.98874 70.0679 5.90373C70.0679 4.81871 70.3111 3.84593 70.7951 2.9854C71.2792 2.12487 71.9433 1.45375 72.7827 0.974374C73.6222 0.495002 74.5576 0.25415 75.5912 0.25415C76.6247 0.256489 77.5601 0.495002 78.3996 0.974374ZM73.8865 2.72817C73.3954 3.02047 73.0119 3.44139 72.736 3.98857C72.46 4.53576 72.3221 5.17414 72.3221 5.90606C72.3221 6.63798 72.46 7.27403 72.736 7.82355C73.0119 8.37074 73.3954 8.79164 73.8865 9.08394C74.3775 9.37624 74.9458 9.52123 75.5912 9.52123C76.2389 9.52123 76.8071 9.37624 77.2959 9.08394C77.7869 8.79164 78.1704 8.37307 78.4464 7.82355C78.7223 7.27636 78.8602 6.63798 78.8602 5.90606C78.8602 5.17414 78.7223 4.5381 78.4464 3.98857C78.1704 3.43905 77.7869 3.02047 77.2959 2.72817C76.8048 2.43587 76.2366 2.29089 75.5912 2.29089C74.9458 2.28856 74.3752 2.43587 73.8865 2.72817Z" fill="#221E1E"/>
<path d="M93.9499 6.7105C94.3521 7.20624 94.5532 7.7885 94.5532 8.45494C94.5532 9.38328 94.2422 10.1152 93.6225 10.653C93.0029 11.1909 92.1026 11.4598 90.924 11.4598H86.1841V0.415527H90.8305C91.9459 0.415527 92.8041 0.661058 93.4051 1.15212C94.0037 1.64319 94.3053 2.33067 94.3053 3.21693C94.3053 3.90442 94.1253 4.46797 93.7652 4.90759C93.4051 5.34487 92.9327 5.63249 92.3504 5.76812C93.0145 5.89907 93.55 6.21475 93.9499 6.7105ZM88.3892 5.04322H90.3768C90.9287 5.04322 91.3496 4.92162 91.6372 4.67609C91.9249 4.43056 92.0675 4.0798 92.0675 3.61913C92.0675 3.15847 91.9272 2.80537 91.6442 2.55516C91.3636 2.30495 90.931 2.17868 90.3464 2.17868H88.3915V5.04322H88.3892ZM91.8313 9.27572C92.1447 9.02083 92.3013 8.64669 92.3013 8.15797C92.3013 7.6669 92.1423 7.29042 91.8243 7.02384C91.5063 6.75726 91.055 6.62398 90.4704 6.62398H88.3892V9.65922H90.4844C91.069 9.65922 91.518 9.53061 91.8313 9.27572Z" fill="#221E1E"/>
<path d="M102.829 9.23596H98.4022L97.6212 11.4574H95.2898L99.3586 0.537109H101.877L105.93 11.4574H103.598L102.829 9.23596ZM102.235 7.56166L100.607 2.89889L98.9798 7.56166H102.235Z" fill="#221E1E"/>
<path d="M114.28 9.99361C113.997 10.4683 113.581 10.8495 113.029 11.1347C112.477 11.4224 111.804 11.565 111.011 11.565C110.228 11.565 109.528 11.4317 108.913 11.1651C108.298 10.8986 107.805 10.5151 107.435 10.0147C107.066 9.51423 106.853 8.92964 106.802 8.26319H109.149C109.201 8.71216 109.381 9.08397 109.69 9.38095C109.998 9.67792 110.408 9.82758 110.917 9.82758C111.376 9.82758 111.729 9.70598 111.974 9.46045C112.22 9.21492 112.341 8.89923 112.341 8.51339C112.341 8.16965 112.243 7.88437 112.044 7.65988C111.846 7.43539 111.595 7.25534 111.294 7.11971C110.992 6.98408 110.574 6.82741 110.043 6.64969C109.355 6.42053 108.792 6.19371 108.354 5.96922C107.915 5.74473 107.543 5.41969 107.234 4.99176C106.926 4.56384 106.774 4.0073 106.774 3.31747C106.774 2.36808 107.115 1.6198 107.798 1.07261C108.481 0.525426 109.386 0.251831 110.513 0.251831C111.682 0.251831 112.613 0.532436 113.305 1.09599C113.997 1.65954 114.392 2.41017 114.486 3.34787H112.108C112.044 2.95268 111.878 2.62531 111.607 2.37042C111.336 2.11554 110.966 1.98693 110.496 1.98693C110.09 1.98693 109.76 2.09449 109.512 2.30729C109.262 2.52008 109.135 2.83108 109.135 3.23796C109.135 3.56066 109.231 3.82958 109.425 4.04472C109.62 4.25751 109.863 4.43289 110.162 4.56851C110.459 4.70414 110.864 4.85614 111.373 5.02217C112.082 5.27237 112.659 5.50622 113.101 5.72603C113.546 5.94584 113.922 6.27321 114.236 6.71049C114.549 7.14777 114.706 7.72302 114.706 8.43156C114.703 9.00213 114.563 9.52125 114.28 9.99361Z" fill="#221E1E"/>
<path d="M118.536 0.413177H116.331V11.4574H118.536V0.413177Z" fill="#221E1E"/>
<path d="M128.956 1.36722C129.863 2.07576 130.462 3.04152 130.754 4.26216H128.439C128.198 3.66821 127.826 3.19819 127.321 2.85445C126.816 2.5107 126.208 2.33766 125.5 2.33766C124.915 2.33766 124.389 2.48498 123.919 2.77494C123.449 3.06724 123.084 3.48348 122.824 4.02599C122.565 4.5685 122.434 5.20454 122.434 5.93412C122.434 6.65434 122.565 7.28571 122.824 7.82822C123.086 8.37073 123.451 8.78697 123.919 9.07927C124.389 9.37157 124.915 9.51655 125.5 9.51655C126.208 9.51655 126.816 9.34585 127.321 8.99976C127.826 8.65602 128.2 8.186 128.439 7.59205H130.754C130.462 8.81269 129.863 9.77611 128.956 10.487C128.048 11.1955 126.905 11.551 125.53 11.551C124.475 11.551 123.545 11.3124 122.738 10.8401C121.929 10.3654 121.304 9.70128 120.86 8.84543C120.416 7.98957 120.196 7.02147 120.196 5.93412C120.196 4.83975 120.418 3.86464 120.86 3.00878C121.304 2.15293 121.926 1.48882 122.729 1.01413C123.531 0.539434 124.466 0.303253 125.53 0.303253C126.907 0.303253 128.048 0.656349 128.956 1.36722Z" fill="#221E1E"/>
<path d="M139.579 9.99361C139.296 10.4683 138.88 10.8495 138.328 11.1347C137.776 11.4224 137.103 11.565 136.31 11.565C135.527 11.565 134.83 11.4317 134.213 11.1651C133.598 10.8986 133.104 10.5151 132.735 10.0147C132.365 9.51423 132.152 8.92964 132.101 8.26319H134.446C134.498 8.71216 134.678 9.08397 134.987 9.38095C135.295 9.67792 135.704 9.82758 136.214 9.82758C136.673 9.82758 137.026 9.70598 137.271 9.46045C137.517 9.21492 137.638 8.89923 137.638 8.51339C137.638 8.16965 137.54 7.88437 137.341 7.65988C137.143 7.43539 136.892 7.25534 136.591 7.11971C136.289 6.98408 135.87 6.82741 135.34 6.64969C134.652 6.42053 134.089 6.19371 133.649 5.96922C133.212 5.74473 132.838 5.41969 132.531 4.99176C132.223 4.56384 132.071 4.0073 132.071 3.31747C132.071 2.36808 132.412 1.6198 133.095 1.07261C133.778 0.525426 134.683 0.251831 135.81 0.251831C136.979 0.251831 137.91 0.532436 138.602 1.09599C139.296 1.65954 139.689 2.41017 139.783 3.34787H137.404C137.341 2.95268 137.175 2.62531 136.904 2.37042C136.633 2.11554 136.263 1.98693 135.793 1.98693C135.386 1.98693 135.057 2.09449 134.806 2.30729C134.556 2.52008 134.432 2.83108 134.432 3.23796C134.432 3.56066 134.528 3.82958 134.722 4.04472C134.916 4.25751 135.16 4.43289 135.457 4.56851C135.754 4.70414 136.158 4.85614 136.668 5.02217C137.376 5.27237 137.954 5.50622 138.396 5.72603C138.838 5.94584 139.217 6.27321 139.53 6.71049C139.843 7.14777 140 7.72302 140 8.43156C140 9.00213 139.86 9.52125 139.579 9.99361Z" fill="#221E1E"/>
<path d="M5.51161 0.436554C2.46701 0.436554 0 2.90357 0 5.94582C0 8.99042 2.46701 11.4574 5.51161 11.4574C8.5562 11.4574 11.0232 8.99042 11.0232 5.94582V0.436554H5.51161ZM7.19292 9.62646V8.46428C7.19292 7.76743 6.77201 7.17348 6.17104 6.91626C6.23417 6.87417 6.29263 6.82506 6.34642 6.77128C6.56155 6.55615 6.69484 6.2615 6.69484 5.93413C6.69484 5.28171 6.16402 4.7509 5.51161 4.7509C4.85686 4.7509 4.32838 5.28171 4.32838 5.93413C4.32838 6.34335 4.53416 6.70346 4.84984 6.91392C4.24887 7.17114 3.82796 7.76743 3.82796 8.46194V9.62412C2.51846 8.99743 1.6135 7.65987 1.6135 6.10951C1.6135 3.95818 3.35794 2.2114 5.51161 2.2114C7.66294 2.2114 9.40738 3.95584 9.40738 6.10951C9.40738 7.6622 8.50242 8.99743 7.19292 9.62646Z" fill="#1E7DBC"/>
</svg>
