<svg width="19" height="19" viewBox="0 0 19 19" fill="none" xmlns="http://www.w3.org/2000/svg">
<path d="M9.29249 5.67274C6.74786 5.67274 4.19783 5.67274 1.6532 5.67274C1.35065 5.67274 1.35065 5.67274 1.35065 5.96448C1.35065 8.76843 1.36146 11.5724 1.34525 14.3763C1.33985 15.0193 1.81528 15.5487 2.50141 15.5379C4.27346 15.5163 6.04552 15.5325 7.81757 15.5325C7.93103 15.5325 8.04449 15.5325 8.15794 15.5595C8.4929 15.646 8.6874 15.9107 8.67119 16.2619C8.65498 16.5752 8.40106 16.8345 8.0769 16.8777C8.01747 16.8832 7.95804 16.8832 7.89321 16.8832C6.07253 16.8832 4.25185 16.8832 2.43658 16.8832C1.26421 16.8832 0.302546 16.1052 0.0594287 14.9598C0.0216104 14.7761 0 14.587 0 14.398C0 10.4378 0 6.47233 0 2.51221C0 1.28582 0.729352 0.35117 1.89632 0.0702339C2.09081 0.0162078 2.29071 0 2.49601 0C7.02879 0 11.567 0 16.0998 0C17.3316 0 18.2986 0.761768 18.5418 1.91793C18.5796 2.09621 18.6012 2.2799 18.6012 2.45819C18.6066 4.41393 18.6012 6.36427 18.6066 8.32002C18.6066 8.64958 18.4985 8.91971 18.1744 9.05477C17.726 9.24386 17.2613 8.9143 17.2559 8.40646C17.2505 7.60687 17.2559 6.80188 17.2559 6.0023C17.2559 5.94827 17.2505 5.89425 17.2559 5.84022C17.2667 5.70515 17.1965 5.65653 17.0722 5.66734C17.0128 5.67274 16.9534 5.66734 16.8886 5.66734C14.3601 5.67274 11.8263 5.67274 9.29249 5.67274ZM9.28708 4.32209C11.8587 4.32209 14.4358 4.32209 17.0074 4.32749C17.2019 4.32749 17.2613 4.26806 17.2559 4.07357C17.2451 3.53331 17.2559 2.99845 17.2505 2.45819C17.2451 1.79367 16.8075 1.35065 16.1484 1.35065C11.5832 1.35065 7.01259 1.35065 2.44738 1.35065C1.78826 1.35065 1.35065 1.79367 1.34525 2.45278C1.34525 2.97684 1.34525 3.50629 1.34525 4.03035C1.34525 4.32209 1.34525 4.32209 1.63159 4.32209C4.18162 4.32209 6.73705 4.32209 9.28708 4.32209Z" fill="#221E1E"/>
<path d="M9.44367 17.8178C9.55172 17.1425 9.67598 16.3969 9.79484 15.6514C9.80565 15.5865 9.82185 15.5163 9.82726 15.4515C9.84887 14.9058 10.1136 14.5114 10.5026 14.1332C11.9019 12.7718 13.2741 11.3779 14.6572 9.99484C15.4027 9.24928 16.2942 9.24388 17.0397 9.98944C17.4287 10.373 17.8231 10.7512 18.1905 11.1564C18.774 11.7993 18.747 12.6745 18.1365 13.285C16.6075 14.8248 15.0678 16.3537 13.5334 17.8881C13.4092 18.0123 13.2687 18.0934 13.0958 18.1258C12.1342 18.2824 11.1671 18.4391 10.2054 18.5904C9.77323 18.6552 9.41126 18.3149 9.44367 17.8178ZM11.1077 17.0939C11.5345 17.0236 12.0045 16.9426 12.4799 16.8724C12.6042 16.8508 12.7123 16.8291 12.8041 16.7319C13.6577 15.8729 14.5167 15.0139 15.3757 14.1603C15.473 14.063 15.4622 14.0036 15.3703 13.9171C14.9543 13.5065 14.5383 13.0959 14.1277 12.6745C14.0251 12.5665 13.9657 12.5827 13.8684 12.6799C13.0202 13.5335 12.1666 14.3872 11.313 15.2354C11.2481 15.3002 11.1941 15.365 11.1779 15.4569C11.0969 15.9539 11.0158 16.451 10.9348 16.948C10.924 17.0452 10.951 17.1101 11.1077 17.0939ZM15.8458 10.7782C15.7917 10.7782 15.7485 10.8052 15.7107 10.843C15.4838 11.0646 15.2623 11.2915 15.0408 11.513C14.9597 11.594 14.9976 11.6534 15.0624 11.7183C15.4892 12.1451 15.9214 12.5719 16.3428 13.0041C16.4184 13.0797 16.4671 13.0743 16.5427 12.9987C16.7426 12.788 16.9479 12.5881 17.1532 12.3828C17.2829 12.2531 17.2937 12.1343 17.1532 12.0046C16.7804 11.6372 16.413 11.2645 16.0403 10.8917C15.9862 10.8376 15.9268 10.789 15.8458 10.7782Z" fill="#221E1E"/>
<path d="M3.69526 3.49551C3.53858 3.49551 3.38731 3.50091 3.23063 3.49551C2.87946 3.4847 2.59312 3.19296 2.58772 2.84179C2.58232 2.48522 2.87406 2.18267 3.23603 2.17727C3.53858 2.17187 3.84113 2.17187 4.14367 2.17727C4.51105 2.18267 4.78658 2.47441 4.78658 2.84179C4.78658 3.21457 4.51645 3.4901 4.13827 3.49551C3.987 3.50091 3.84113 3.49551 3.69526 3.49551Z" fill="#221E1E"/>
<path d="M6.71524 3.49551C6.55857 3.49551 6.4073 3.50091 6.25062 3.49551C5.89945 3.4847 5.61851 3.19296 5.61311 2.84179C5.60771 2.48522 5.89405 2.18267 6.25602 2.17727C6.55857 2.17187 6.86111 2.17187 7.16366 2.17727C7.52564 2.18267 7.81197 2.48522 7.81197 2.84179C7.81197 3.19836 7.52023 3.4901 7.15826 3.50091C7.00699 3.50091 6.86112 3.49551 6.71524 3.49551Z" fill="#221E1E"/>
</svg>
