<svg width="17" height="19" viewBox="0 0 17 19" fill="none" xmlns="http://www.w3.org/2000/svg">
<path d="M2.34837 0C5.77184 0 9.19531 0 12.6188 0C12.6881 0.054498 12.7575 0.0990874 12.8219 0.15854C14.0754 1.34263 15.3239 2.53168 16.5773 3.71578C16.721 3.84954 16.7854 4.01304 16.7854 4.21121C16.7804 8.22425 16.7854 12.2323 16.7804 16.2454C16.7804 17.7763 15.5468 19 14.0159 19C10.2654 19 6.51499 19 2.75958 19C1.23859 19 0.00495437 17.7763 0 16.2454C0 11.7419 0 7.23833 0.00495437 2.72986C0.00495437 2.11551 0.198175 1.56558 0.569752 1.0751C1.01565 0.480574 1.62503 0.143677 2.34837 0ZM1.05528 9.48266C1.05528 11.6824 1.05528 13.8821 1.05528 16.0819C1.05528 16.2553 1.05033 16.4287 1.08501 16.5971C1.26832 17.4245 1.96193 17.9695 2.84876 17.9695C6.53976 17.9695 10.2258 17.9695 13.9168 17.9695C15.1009 17.9695 15.745 17.048 15.74 16.1661C15.7252 12.4206 15.7351 8.6751 15.7301 4.93455C15.7301 4.68683 15.7153 4.67197 15.4675 4.66701C14.8482 4.66701 14.2339 4.66206 13.6146 4.66701C12.4206 4.67692 11.8459 3.77523 11.8954 2.93794C11.9301 2.3781 11.9004 1.8133 11.9004 1.25345C11.9004 1.01565 11.8954 1.01069 11.6626 1.01069C8.71969 1.01069 5.78175 1.01069 2.83885 1.01069C2.61095 1.01069 2.38305 1.05033 2.16506 1.1296C1.5854 1.34263 1.04537 1.95698 1.05033 2.80913C1.06519 5.03364 1.05528 7.25815 1.05528 9.48266ZM12.9854 1.7588C12.9705 1.76871 12.9507 1.77366 12.9359 1.78357C12.9507 2.24433 12.9111 2.70508 12.9606 3.16584C12.9904 3.41356 13.1786 3.60678 13.4263 3.61173C13.9069 3.62164 14.3875 3.61173 14.8681 3.60678C14.873 3.60678 14.8829 3.58696 14.8928 3.56714C14.2587 2.96767 13.6196 2.36323 12.9854 1.7588Z" fill="#221E1E"/>
<path d="M13.0499 12.3958C13.0549 12.8962 12.931 13.3669 12.6684 13.788C12.5792 13.9317 12.609 14.006 12.718 14.115C13.258 14.6451 13.7931 15.1901 14.3331 15.7252C14.4718 15.8639 14.5709 16.0125 14.5461 16.2157C14.4916 16.6269 14.0309 16.8151 13.7039 16.5525C13.5701 16.4436 13.4512 16.3147 13.3323 16.1909C12.8815 15.74 12.4306 15.2941 11.9847 14.8383C11.8807 14.7343 11.8064 14.7145 11.6726 14.7937C9.95838 15.7599 7.88746 14.8037 7.51588 12.8764C7.22357 11.3604 8.31849 9.82947 9.84939 9.62634C11.4397 9.41331 12.8171 10.4537 13.04 12.0441C13.045 12.163 13.04 12.2769 13.0499 12.3958ZM10.2606 14.1299C11.2267 14.1299 12.0095 13.357 12.0144 12.3958C12.0194 11.4347 11.2366 10.6569 10.2705 10.6519C9.28459 10.6469 8.51666 11.4149 8.51666 12.3958C8.51666 13.3669 9.28459 14.1299 10.2606 14.1299Z" fill="#221E1E"/>
<path d="M8.37793 6.50013C6.93621 6.50013 5.49944 6.50013 4.05772 6.50013C3.94872 6.50013 3.83477 6.50509 3.72578 6.46545C3.50779 6.38618 3.36411 6.1781 3.37402 5.9502C3.38393 5.7223 3.54742 5.52908 3.77532 5.47458C3.86945 5.45476 3.9735 5.44485 4.06763 5.44485C6.94612 5.44485 9.8246 5.44485 12.7031 5.44485C12.7873 5.44485 12.8765 5.44981 12.9607 5.46467C13.2283 5.51422 13.4066 5.72725 13.4017 5.97993C13.3967 6.23755 13.2035 6.45555 12.931 6.49023C12.8517 6.50013 12.7725 6.50013 12.6882 6.50013C11.2564 6.50013 9.81965 6.50013 8.37793 6.50013Z" fill="#221E1E"/>
<path d="M8.39267 8.75932C6.95095 8.75932 5.51419 8.75932 4.07247 8.75932C3.96347 8.75932 3.84952 8.75932 3.74052 8.72464C3.51758 8.65528 3.36895 8.4472 3.3739 8.22425C3.37885 8.00626 3.52748 7.80808 3.74052 7.73872C3.83466 7.70899 3.93374 7.70404 4.03283 7.70404C6.93609 7.70404 9.83935 7.70404 12.7426 7.70404C12.7773 7.70404 12.8169 7.70404 12.8516 7.70404C13.1786 7.72386 13.4065 7.9468 13.4015 8.23911C13.3966 8.52647 13.1736 8.74446 12.8516 8.75437C12.5345 8.76428 12.2224 8.75932 11.9053 8.75932C10.741 8.76428 9.56686 8.75932 8.39267 8.75932Z" fill="#221E1E"/>
<path d="M4.73629 11.0185C4.4638 11.0185 4.19131 11.0284 3.92378 11.0136C3.48779 10.9888 3.24998 10.5825 3.45311 10.2308C3.55715 10.0574 3.71569 9.96818 3.91387 9.96818C4.4638 9.96323 5.01374 9.95828 5.55872 9.96818C5.8758 9.97314 6.09874 10.2109 6.09379 10.4933C6.08884 10.7708 5.8758 10.9937 5.56863 11.0086C5.29118 11.0284 5.01374 11.0185 4.73629 11.0185Z" fill="#221E1E"/>
</svg>
