<svg width="19" height="19" viewBox="0 0 19 19" fill="none" xmlns="http://www.w3.org/2000/svg">
<path d="M5.23556 0C5.96178 0.219556 6.52755 0.641778 6.98355 1.24978C7.51555 1.95911 8.08978 2.63467 8.63867 3.33556C9.32267 4.21378 9.37333 5.21867 8.80756 6.17289C8.55422 6.59511 8.29244 7.00889 8.03911 7.43111C7.76889 7.88711 7.79422 8.19956 8.15733 8.57111C8.90889 9.33111 9.66044 10.0911 10.4289 10.8342C10.8004 11.1973 11.1213 11.2227 11.5773 10.9524C11.9996 10.6991 12.4133 10.4373 12.8356 10.184C13.7476 9.63511 14.7609 9.66889 15.5969 10.3107C16.4329 10.9524 17.252 11.6196 18.0711 12.2867C18.5524 12.6751 18.8058 13.1987 19 13.7644C19 14.1613 19 14.5498 19 14.9467C18.0458 16.7707 16.8804 18.3751 14.7778 19C14.2711 19 13.7644 19 13.2578 19C6.58667 16.8298 2.16178 12.4133 0 5.74222C0 5.23556 0 4.72889 0 4.22222C0.616444 2.11111 2.22089 0.945778 4.05333 0C4.45022 0 4.83867 0 5.23556 0ZM13.9756 17.3702C14.668 17.3618 15.276 17.1338 15.7489 16.6187C16.2049 16.1204 16.644 15.6053 17.0747 15.0902C17.5307 14.5329 17.48 13.9671 16.9227 13.5027C16.188 12.8947 15.428 12.3036 14.6849 11.704C14.364 11.4422 14.0178 11.4253 13.6716 11.6364C13.2324 11.8982 12.8102 12.1684 12.3796 12.4302C11.3493 13.0467 10.2178 12.9369 9.35644 12.1093C8.52889 11.3071 7.70978 10.488 6.90756 9.66044C6.08 8.80756 5.96178 7.65067 6.57822 6.63733C6.84 6.20667 7.11022 5.776 7.372 5.34533C7.57467 4.99911 7.57467 4.65289 7.30444 4.32356C6.70489 3.58044 6.11378 2.82889 5.50578 2.08578C5.03289 1.51156 4.45867 1.46933 3.88444 1.95067C3.42 2.33911 2.95556 2.72756 2.508 3.13289C1.66356 3.89289 1.41022 4.82178 1.79022 5.88578C3.78311 11.4338 7.56622 15.2 13.1058 17.2098C13.3844 17.3111 13.6716 17.3787 13.9756 17.3702Z" fill="#221E1E"/>
</svg>
