<svg width="549" height="583" viewBox="0 0 549 583" fill="none" xmlns="http://www.w3.org/2000/svg">
<path opacity="0.02" d="M291.5 0C130.476 0 0 130.504 0 291.438C0 452.496 130.476 583 291.5 583C452.524 583 583 452.496 583 291.438V0H291.5ZM380.422 486.142V424.663C380.422 387.801 358.16 356.381 326.376 342.774C329.715 340.547 332.807 337.949 335.652 335.104C347.03 323.724 354.079 308.137 354.079 290.819C354.079 256.307 326.005 228.227 291.5 228.227C256.871 228.227 228.921 256.307 228.921 290.819C228.921 312.467 239.804 331.517 256.5 342.65C224.716 356.257 202.455 387.8 202.455 424.539V486.019C133.197 452.867 85.3352 382.11 85.3352 300.097C85.3352 186.293 177.596 93.8885 291.5 93.8885C405.28 93.8885 497.541 186.169 497.541 300.097C497.541 382.234 449.679 452.867 380.422 486.142Z" fill="white"/>
</svg>
