<svg width="20" height="20" viewBox="0 0 20 20" fill="none" xmlns="http://www.w3.org/2000/svg">
<path d="M9.87088 0C10.3386 0.0895544 10.7366 0.323391 11.1147 0.597029C13.6172 2.39807 16.1248 4.19413 18.6323 5.99019C18.8462 6.14442 19.0502 6.30861 19.0801 6.59717C19.1099 6.93051 18.9756 7.1942 18.692 7.36833C18.4084 7.54744 18.1248 7.50764 17.8561 7.31858C16.9556 6.6718 16.0501 6.02502 15.1496 5.37824C13.4481 4.15433 11.7515 2.93539 10.05 1.71646C9.67685 1.4478 9.38828 1.45277 9.01016 1.72143C6.44791 3.5573 3.88566 5.39316 1.32839 7.22903C0.746286 7.65192 0.308465 7.53749 0 6.89071C0 6.75638 0 6.61707 0 6.48274C0.0796039 6.29368 0.213935 6.15437 0.378118 6.03497C2.89559 4.22896 5.41306 2.42792 7.92556 0.621905C8.31861 0.338316 8.71662 0.0945296 9.19922 0C9.42311 0 9.64699 0 9.87088 0Z" fill="#221E1E"/>
<path d="M17.5876 13.4879C17.5876 14.5924 17.5876 15.6969 17.5876 16.8014C17.5876 18.085 16.5925 19.08 15.3089 19.08C13.9059 19.08 12.5029 19.08 11.0999 19.08C10.5626 19.08 10.264 18.7765 10.264 18.2392C10.264 17.3039 10.264 16.3636 10.264 15.4282C10.264 15.0501 10.08 14.7715 9.78144 14.662C9.28392 14.4829 8.81127 14.8411 8.80629 15.4033C8.79634 15.9606 8.80629 16.5228 8.80629 17.08C8.80629 17.4979 8.81127 17.9109 8.80629 18.3288C8.80132 18.7517 8.48788 19.08 8.06498 19.08C6.57738 19.085 5.08481 19.095 3.59721 19.0751C2.49271 19.0601 1.49269 18.0402 1.48771 16.9357C1.47776 14.6421 1.47278 12.3436 1.49269 10.05C1.49766 9.31363 1.85588 8.73651 2.45291 8.30366C3.7813 7.34344 5.10969 6.38819 6.43808 5.42797C6.98535 5.02995 7.5376 4.63691 8.07991 4.23889C9.05505 3.52743 10.0203 3.52743 11.0004 4.23889C12.8561 5.57723 14.7119 6.92054 16.5677 8.25888C17.2592 8.75641 17.6075 9.41314 17.5975 10.2739C17.5826 11.3386 17.5876 12.4132 17.5876 13.4879ZM3.01511 13.5028C3.01511 14.6023 3.01511 15.7018 3.01511 16.7964C3.01511 17.2243 3.27382 17.5327 3.66189 17.5327C4.81615 17.5427 5.9704 17.5377 7.12466 17.5427C7.26397 17.5427 7.28387 17.4681 7.28387 17.3536C7.27889 16.6919 7.28387 16.0252 7.28387 15.3635C7.28387 15.264 7.27889 15.1645 7.29382 15.065C7.44308 13.9307 8.42817 12.9704 9.76651 13.0998C11.0203 13.2192 11.7865 14.3038 11.7765 15.3088C11.7715 15.9805 11.7815 16.6471 11.7715 17.3188C11.7715 17.473 11.8064 17.5427 11.9755 17.5427C13.08 17.5377 14.1845 17.5377 15.289 17.5377C15.4084 17.5377 15.5229 17.5327 15.6323 17.478C15.9458 17.3238 16.0453 17.0651 16.0453 16.7317C16.0403 14.5774 16.0403 12.4232 16.0453 10.2739C16.0453 9.92061 15.9109 9.67683 15.6323 9.47782C13.7915 8.15938 11.9556 6.83099 10.1198 5.5026C9.64213 5.15931 9.39835 5.15433 8.93067 5.49762C7.08983 6.82601 5.24899 8.15938 3.40318 9.48279C3.12954 9.6818 2.99023 9.91564 2.99521 10.2639C3.02009 11.3435 3.01511 12.4232 3.01511 13.5028Z" fill="#221E1E"/>
</svg>
