<svg width="84" height="84" viewBox="0 0 84 84" fill="none" xmlns="http://www.w3.org/2000/svg">
<path d="M41.5522 0C18.5989 0 0 18.5989 0 41.5346C0 64.4879 18.5989 83.0868 41.5522 83.0868C64.5055 83.0868 83.1044 64.4879 83.1044 41.5346V0H41.5522ZM54.2277 69.283V60.5213C54.2277 55.2678 51.0544 50.7899 46.5237 48.8507C46.9997 48.5334 47.4404 48.1632 47.8459 47.7577C49.4678 46.1358 50.4726 43.9145 50.4726 41.4464C50.4726 36.5278 46.4708 32.526 41.5522 32.526C36.616 32.526 32.6318 36.5278 32.6318 41.4464C32.6318 44.5315 34.1832 47.2464 36.5631 48.8331C32.0324 50.7723 28.8591 55.2677 28.8591 60.5036V69.2654C18.9867 64.5407 12.1642 54.4568 12.1642 42.7686C12.1642 26.5497 25.3156 13.3806 41.5522 13.3806C57.7711 13.3806 70.9226 26.532 70.9226 42.7686C70.9226 54.4744 64.1001 64.5408 54.2277 69.283Z" fill="#1E7DBC"/>
</svg>
