<svg width="23" height="19" viewBox="0 0 23 19" fill="none" xmlns="http://www.w3.org/2000/svg">
<path d="M22.3893 16.9791C22.2635 17.3949 22.0775 17.7778 21.7493 18.0732C21.2953 18.4779 20.7592 18.5983 20.1739 18.5983C15.3712 18.5983 10.563 18.5983 5.76025 18.5983C4.56777 18.5983 3.37529 18.5983 2.17734 18.5983C1.62486 18.5983 1.11068 18.467 0.684009 18.0841C0.279223 17.7231 0.0275993 17.2745 0.0166592 16.733C0.000248912 15.4311 -0.0106913 14.1292 0.0166592 12.8219C0.0604198 11.4051 1.31854 10.0595 2.74623 9.84616C3.30965 9.7641 3.87854 9.80239 4.44743 9.80239C5.03272 9.80239 5.62896 9.74222 6.20879 9.87898C6.3346 9.9118 6.38931 9.82428 6.44948 9.73128C6.8652 9.03658 7.46144 8.56069 8.22178 8.28718C8.6211 8.14496 9.03135 8.10667 9.44708 8.1012C10.6286 8.09026 11.8047 8.09026 12.9862 8.1012C14.2717 8.10667 15.2946 8.62086 15.9784 9.73675C16.044 9.84069 16.1151 9.90633 16.2409 9.87351C16.591 9.77504 16.9466 9.79693 17.3021 9.79693C17.8819 9.79693 18.4672 9.79693 19.0471 9.79693C20.6936 9.8024 21.9954 10.8472 22.351 12.4609C22.3619 12.5101 22.3784 12.5593 22.3893 12.6085C22.3893 14.0691 22.3893 15.5241 22.3893 16.9791ZM11.1975 17.2308C12.4064 17.2308 13.6153 17.2253 14.8242 17.2362C15.0156 17.2362 15.0922 17.1925 15.0922 16.9846C15.0867 15.1576 15.0922 13.3306 15.0867 11.5036C15.0813 10.3166 14.2498 9.4906 13.0573 9.48513C11.8266 9.47966 10.5958 9.47966 9.36503 9.48513C8.16708 9.4906 7.33563 10.3221 7.33563 11.5255C7.33016 13.3361 7.3411 15.1521 7.33016 16.9627C7.33016 17.1925 7.40674 17.2417 7.62007 17.2417C8.81255 17.2253 10.005 17.2308 11.1975 17.2308ZM5.96811 14.2222C5.96811 13.3142 5.96811 12.4062 5.96811 11.4927C5.96811 11.2027 5.9517 11.1809 5.66178 11.1754C4.80298 11.159 3.94418 11.1535 3.08538 11.1809C3.00879 11.1809 2.92674 11.1973 2.85016 11.2191C1.92572 11.4762 1.38418 12.1491 1.3623 13.1556C1.33495 14.2824 1.34589 15.4092 1.3623 16.5361C1.36777 16.9901 1.6358 17.2253 2.08435 17.2253C3.29324 17.2253 4.49666 17.2198 5.70554 17.2308C5.90247 17.2308 5.97358 17.1706 5.96811 16.9737C5.96264 16.0547 5.96811 15.1412 5.96811 14.2222ZM16.4543 14.2003C16.4543 15.1248 16.4597 16.0492 16.4488 16.9737C16.4488 17.1761 16.5144 17.2362 16.7113 17.2308C17.9093 17.2253 19.1127 17.2253 20.3107 17.2253C20.7975 17.2253 21.0491 16.9791 21.0601 16.4923C21.0655 16.0985 21.0655 15.7046 21.0601 15.3162C21.0437 14.4903 21.1038 13.6588 21.0218 12.8328C20.9452 12.0123 20.1575 11.2246 19.3479 11.1863C18.4782 11.148 17.603 11.1699 16.7278 11.1754C16.5144 11.1754 16.4378 11.2574 16.4378 11.4762C16.4597 12.3843 16.4543 13.2923 16.4543 14.2003Z" fill="#221E1E"/>
<path d="M15.1141 3.90564C15.1141 6.07179 13.3692 7.82222 11.203 7.81675C9.05328 7.81675 7.31927 6.06632 7.30286 3.91111C7.28645 1.89812 8.90012 -0.00546595 11.2194 4.13109e-06C13.5606 0.00547421 15.147 1.93094 15.1141 3.90564ZM11.2085 6.44923C12.6252 6.44923 13.7794 5.32239 13.7685 3.90564C13.7521 2.43419 12.6034 1.37299 11.2304 1.35658C9.83004 1.34017 8.64303 2.49983 8.65944 3.8947C8.67038 5.50838 9.9832 6.48752 11.2085 6.44923Z" fill="#221E1E"/>
<path d="M4.39814 9.47965C2.78447 9.47965 1.46071 8.16136 1.46071 6.55316C1.45524 4.94495 2.80088 3.59931 4.40908 3.60478C6.01182 3.61025 7.33558 4.94495 7.33558 6.54769C7.33558 8.16136 6.01182 9.47965 4.39814 9.47965ZM4.39814 8.10666C5.27883 8.10666 5.96259 7.42837 5.96259 6.54769C5.96259 5.67247 5.27336 4.97777 4.39814 4.97777C3.5284 4.97777 2.8337 5.67247 2.82823 6.54769C2.8337 7.4229 3.51746 8.10666 4.39814 8.10666Z" fill="#221E1E"/>
<path d="M18.0296 9.47967C16.4159 9.47967 15.0922 8.16685 15.0867 6.56411C15.0812 4.94497 16.4104 3.61027 18.0241 3.61027C19.6214 3.61027 20.9616 4.94497 20.9616 6.5477C20.9616 8.15044 19.6378 9.4742 18.0296 9.47967ZM18.0132 8.10668C18.8939 8.11215 19.5831 7.42839 19.5886 6.55317C19.5886 5.68343 18.8993 4.97779 18.0296 4.97779C17.1544 4.97779 16.4597 5.66702 16.4597 6.53676C16.4542 7.42292 17.1325 8.10668 18.0132 8.10668Z" fill="#221E1E"/>
</svg>
