<svg width="22" height="25" viewBox="0 0 22 25" fill="none" xmlns="http://www.w3.org/2000/svg">
<path d="M5.30256 24.9936C5.04872 24.896 4.84695 24.7268 4.65169 24.5315C3.42154 23.2949 2.18488 22.0582 0.948222 20.8215C0.362437 20.2292 0.355928 19.5979 0.941713 19.0121C1.29318 18.6606 1.64466 18.3157 1.98962 17.9577C2.33458 17.6062 2.73812 17.5151 3.19373 17.6648C3.34994 17.7169 3.44106 17.6518 3.53869 17.5672C4.22211 16.9944 4.92505 16.4412 5.58894 15.8359C6.85814 14.6838 8.34213 14.469 9.90423 14.9051C10.8675 15.1785 11.8178 15.2891 12.8071 15.2566C13.2432 15.2436 13.6858 15.2566 14.1219 15.2566C14.6816 15.2501 15.1568 15.4388 15.5408 15.8424C15.6775 15.9856 15.7491 15.9465 15.8727 15.8359C16.5887 15.172 17.3112 14.5211 18.0336 13.8637C18.7756 13.1868 19.6413 13.0371 20.4809 13.4406C21.1188 13.7466 21.4117 14.2998 21.2489 14.8726C21.1904 15.0678 21.0862 15.224 20.943 15.3672C19.5241 16.7861 18.1052 18.2115 16.6863 19.6239C16.2372 20.073 15.697 20.3594 15.0852 20.5026C13.4124 20.8801 11.7202 21.0428 10.0084 20.9387C9.12969 20.8866 8.40071 21.1209 7.78238 21.7458C7.66523 21.8629 7.65221 21.9541 7.74333 22.0973C8.03622 22.5724 7.97765 23.0996 7.58712 23.5096C7.1966 23.9132 6.79306 24.3037 6.40253 24.7007C6.26585 24.8374 6.09012 24.896 5.93391 25.0001C5.72563 24.9936 5.51735 24.9936 5.30256 24.9936ZM11.9805 17.5607C12.9438 17.5607 13.9136 17.5607 14.8769 17.5607C15.2023 17.5607 15.3 17.4565 15.2869 17.1311C15.2544 16.5388 14.7337 16.0832 14.0633 16.0832C13.1846 16.0767 12.3125 16.0767 11.4338 16.0832C11.0823 16.0832 10.7373 16.0311 10.4054 15.914C9.90423 15.7447 9.39655 15.6015 8.86934 15.5625C7.97764 15.4974 7.13802 15.6536 6.42857 16.2459C5.67356 16.8773 4.92505 17.5086 4.16353 18.1334C4.03987 18.2311 4.02034 18.2962 4.14401 18.4198C5.06174 19.331 5.97296 20.2488 6.87767 21.173C7.01435 21.3162 7.09246 21.2772 7.20311 21.1535C7.73682 20.5937 8.38119 20.2423 9.14922 20.1251C9.54625 20.0665 9.94328 20.0991 10.3403 20.1121C11.7722 20.1577 13.1911 20.0405 14.597 19.7606C15.2284 19.637 15.7881 19.3961 16.2307 18.9145C16.4325 18.6997 16.6408 18.4979 16.849 18.2896C17.9946 17.1376 19.1466 15.9921 20.2922 14.84C20.533 14.5927 20.5069 14.417 20.2075 14.2412C19.7064 13.9483 19.1076 14.0264 18.6585 14.4365C17.8644 15.1589 17.0768 15.8879 16.2828 16.6039C16.1526 16.721 16.0745 16.8252 16.1201 17.0204C16.1591 17.1832 16.1461 17.3589 16.1005 17.5281C15.9508 18.0944 15.5082 18.4003 14.7988 18.4068C12.9503 18.4133 11.0953 18.4068 9.24685 18.4068C9.14271 18.4068 9.03206 18.4003 8.93443 18.3743C8.73266 18.3222 8.6155 18.179 8.6155 17.9642C8.6155 17.7559 8.77171 17.5997 8.97999 17.5737C9.05809 17.5607 9.14271 17.5672 9.22081 17.5672C10.1451 17.5607 11.0628 17.5607 11.9805 17.5607ZM7.08595 22.7091C7.09246 22.5919 7.02737 22.5073 6.95578 22.4357C5.67356 21.147 4.38483 19.8582 3.10261 18.576C2.90735 18.3808 2.77067 18.3743 2.5754 18.5695C2.20441 18.9275 1.84643 19.2855 1.48845 19.6565C1.31271 19.8387 1.31271 20.008 1.49496 20.1902C2.77717 21.4789 4.0659 22.7676 5.34812 24.0499C5.54338 24.2451 5.67356 24.2451 5.86882 24.0564C6.23331 23.6984 6.59129 23.3339 6.95578 22.9694C7.02737 22.8913 7.08595 22.8132 7.08595 22.7091Z" fill="#221E1E"/>
<path d="M13.3925 0C13.5812 0.10414 13.6593 0.273366 13.6528 0.488154C13.6463 0.631346 13.6593 0.781047 13.6463 0.924239C13.6268 1.15855 13.4771 1.31476 13.2688 1.32778C13.054 1.34731 12.8653 1.21713 12.8392 0.989326C12.8002 0.637855 12.7091 0.266858 13.054 0C13.1647 0 13.2753 0 13.3925 0Z" fill="#221E1E"/>
<path d="M13.2429 14.5535C12.8849 14.5535 12.527 14.56 12.169 14.5535C11.466 14.5405 11.0365 14.1044 11.0365 13.4014C11.0365 12.9979 11.0365 12.5879 11.0365 12.1843C11.0365 11.9109 11.1341 11.6897 11.3749 11.5465C11.5376 11.4488 11.5441 11.3317 11.4856 11.1755C11.3749 10.8696 11.1406 10.6938 10.8737 10.5441C9.8779 9.97135 9.17496 9.14474 8.76491 8.07731C7.65842 5.18744 9.65009 1.96562 12.7092 1.64018C15.1565 1.37332 17.6038 3.06559 17.9682 5.77322C18.2091 7.59566 17.415 9.43112 15.7292 10.4725C15.4624 10.6417 15.163 10.7719 15.0263 11.0843C14.9417 11.2731 14.8636 11.4488 15.1369 11.5855C15.3322 11.6831 15.4168 11.8979 15.4298 12.1192C15.4559 12.6074 15.4754 13.0955 15.4233 13.5837C15.3582 14.1955 14.9352 14.5535 14.3168 14.5665C13.9589 14.56 13.6009 14.5535 13.2429 14.5535ZM13.2364 11.4163C13.4642 11.4163 13.692 11.4163 13.9198 11.4163C14.0174 11.4163 14.0956 11.3968 14.1086 11.2796C14.1997 10.5832 14.6293 10.1471 15.2085 9.79561C16.6535 8.91043 17.3239 7.60217 17.1351 5.9099C16.8878 3.69043 14.831 2.14786 12.6376 2.49282C10.9974 2.75317 9.65009 4.0419 9.37022 5.62352C9.06431 7.33532 9.8063 8.96901 11.2968 9.81514C11.8631 10.1341 12.2471 10.5702 12.3577 11.2145C12.3838 11.3642 12.4554 11.4228 12.6051 11.4163C12.8133 11.4098 13.0281 11.4163 13.2364 11.4163ZM13.2494 12.2689C12.8719 12.2689 12.4879 12.2754 12.1104 12.2689C11.9607 12.2689 11.8826 12.308 11.8826 12.4772C11.8891 12.8026 11.8826 13.1281 11.8826 13.4535C11.8826 13.6358 11.9737 13.7139 12.156 13.7139C12.8654 13.7139 13.5814 13.7139 14.2908 13.7139C14.4926 13.7139 14.5902 13.6227 14.5902 13.421C14.5902 13.1151 14.5837 12.8026 14.5902 12.4967C14.5967 12.3275 14.5251 12.2689 14.3624 12.2754C13.9979 12.2689 13.6269 12.2689 13.2494 12.2689Z" fill="#221E1E"/>
<path d="M19.0877 6.9384C18.9836 6.9384 18.873 6.95142 18.7688 6.9384C18.567 6.91237 18.4043 6.73013 18.4108 6.53486C18.4173 6.32658 18.5215 6.17688 18.7298 6.13132C18.9641 6.07925 19.1984 6.07925 19.4327 6.13132C19.641 6.17688 19.7842 6.35913 19.7712 6.54788C19.7581 6.75616 19.5954 6.91888 19.3741 6.94491C19.283 6.95142 19.1854 6.94491 19.0877 6.9384Z" fill="#221E1E"/>
<path d="M10.4246 2.08923C10.0731 2.08272 9.637 1.30818 9.81924 1.00227C9.94291 0.787483 10.2488 0.722395 10.4246 0.898131C10.6198 1.09339 10.763 1.33422 10.8346 1.60758C10.8997 1.85491 10.6849 2.09574 10.4246 2.08923Z" fill="#221E1E"/>
<path d="M18.951 3.44951C18.951 3.69034 18.7883 3.814 18.5995 3.90513C18.3717 4.02228 18.1634 4.25009 17.864 4.08086C17.6102 3.93116 17.5842 3.57969 17.825 3.40395C17.9942 3.28029 18.183 3.16964 18.3717 3.09153C18.6581 2.97438 18.9445 3.16313 18.951 3.44951Z" fill="#221E1E"/>
<path d="M7.9774 10.0169C7.75611 9.99736 7.61942 9.91926 7.55434 9.75654C7.48274 9.5743 7.52179 9.39205 7.68451 9.2749C7.86025 9.15123 8.05551 9.04058 8.25077 8.94946C8.42 8.87135 8.58922 8.92342 8.71289 9.07312C8.83005 9.20981 8.85608 9.37904 8.75194 9.52223C8.55017 9.8021 8.23775 9.90624 7.9774 10.0169Z" fill="#221E1E"/>
<path d="M16.7186 1.26262C16.6014 1.51646 16.4973 1.82237 16.2369 2.02414C16.0937 2.13479 15.931 2.11527 15.7878 2.00462C15.6446 1.89397 15.586 1.74427 15.6381 1.57504C15.7162 1.34724 15.8464 1.13245 15.9961 0.943695C16.1133 0.793994 16.289 0.774468 16.4647 0.846064C16.6274 0.904642 16.699 1.04783 16.7186 1.26262Z" fill="#221E1E"/>
<path d="M8.00341 3.0592C8.24424 3.14381 8.53713 3.26748 8.7389 3.52132C8.84955 3.658 8.82351 3.83374 8.71937 3.97693C8.60872 4.11361 8.45902 4.18521 8.2898 4.12663C8.05548 4.04202 7.83419 3.91184 7.64543 3.74912C7.50875 3.63197 7.49573 3.46274 7.56082 3.30002C7.6194 3.1308 7.75608 3.05269 8.00341 3.0592Z" fill="#221E1E"/>
<path d="M7.36544 6.93832C7.2613 6.93832 7.15065 6.95134 7.05302 6.93832C6.85125 6.89927 6.71457 6.78211 6.70806 6.56082C6.69504 6.33301 6.80569 6.18331 7.02699 6.13775C7.2613 6.08568 7.49562 6.08568 7.72342 6.13775C7.93821 6.18331 8.06188 6.33301 8.04886 6.55431C8.03584 6.78211 7.89916 6.91229 7.68437 6.94483C7.57372 6.95134 7.46958 6.93832 7.36544 6.93832Z" fill="#221E1E"/>
<path d="M18.9574 9.59371C18.9509 9.8866 18.658 10.0884 18.4042 9.98423C18.2024 9.89962 18.0136 9.78246 17.8379 9.65879C17.6491 9.52862 17.6231 9.30081 17.7338 9.11857C17.8444 8.94284 18.0462 8.87124 18.2414 8.96236C18.4237 9.04697 18.5994 9.15111 18.7686 9.26176C18.8923 9.33987 18.9509 9.46353 18.9574 9.59371Z" fill="#221E1E"/>
</svg>
