<svg width="22" height="27" viewBox="0 0 22 27" fill="none" xmlns="http://www.w3.org/2000/svg">
<path d="M5.28446 26.0335C5.02981 25.9356 4.82739 25.7658 4.63151 25.5699C3.39742 24.3293 2.15681 23.0887 0.916191 21.8481C0.328531 21.2539 0.322002 20.6205 0.909662 20.0329C1.26226 19.6803 1.61485 19.3342 1.96092 18.9751C2.30699 18.6225 2.71182 18.5311 3.16889 18.6812C3.3256 18.7335 3.41701 18.6682 3.51495 18.5833C4.20056 18.0087 4.90575 17.4537 5.57176 16.8464C6.84503 15.6907 8.33377 15.4752 9.90086 15.9127C10.8672 16.187 11.8205 16.298 12.813 16.2653C13.2505 16.2522 13.6945 16.2653 14.132 16.2653C14.6936 16.2588 15.1702 16.4481 15.5555 16.853C15.6926 16.9966 15.7644 16.9574 15.8885 16.8464C16.6067 16.1804 17.3315 15.5275 18.0563 14.868C18.8006 14.1889 19.6691 14.0387 20.5114 14.4436C21.1513 14.7504 21.4451 15.3055 21.2819 15.8801C21.2231 16.0759 21.1186 16.2327 20.975 16.3763C19.5515 17.7998 18.1281 19.2297 16.7047 20.6466C16.2541 21.0972 15.7122 21.3845 15.0984 21.5281C13.4203 21.9068 11.7226 22.0701 10.0053 21.9656C9.12384 21.9134 8.39253 22.1484 7.77222 22.7753C7.65469 22.8928 7.64163 22.9842 7.73305 23.1279C8.02688 23.6045 7.96811 24.1334 7.57634 24.5448C7.18456 24.9496 6.77973 25.3414 6.38796 25.7397C6.25084 25.8768 6.07454 25.9356 5.91783 26.0401C5.70888 26.0335 5.49994 26.0335 5.28446 26.0335ZM11.9838 18.5768C12.9502 18.5768 13.9231 18.5768 14.8894 18.5768C15.2159 18.5768 15.3139 18.4723 15.3008 18.1458C15.2682 17.5516 14.7458 17.0946 14.0732 17.0946C13.1918 17.088 12.3168 17.088 11.4353 17.0946C11.0827 17.0946 10.7366 17.0423 10.4036 16.9248C9.90086 16.755 9.39155 16.6114 8.86266 16.5722C7.96811 16.5069 7.1258 16.6636 6.41408 17.2578C5.65665 17.8912 4.90575 18.5245 4.14179 19.1514C4.01773 19.2493 3.99814 19.3146 4.1222 19.4387C5.04287 20.3528 5.95701 21.2735 6.86462 22.2007C7.00174 22.3443 7.08009 22.3051 7.19109 22.1811C7.72652 21.6195 8.37294 21.2669 9.14343 21.1494C9.54173 21.0906 9.94004 21.1233 10.3383 21.1364C11.7748 21.1821 13.1983 21.0645 14.6087 20.7838C15.242 20.6597 15.8036 20.4181 16.2476 19.9349C16.45 19.7194 16.6589 19.517 16.8679 19.3081C18.0171 18.1523 19.1728 17.0031 20.322 15.8474C20.5636 15.5993 20.5375 15.423 20.2371 15.2467C19.7344 14.9529 19.1336 15.0312 18.6831 15.4426C17.8865 16.1674 17.0964 16.8987 16.2998 17.6169C16.1692 17.7345 16.0909 17.8389 16.1366 18.0348C16.1758 18.1981 16.1627 18.3744 16.117 18.5441C15.9668 19.1122 15.5228 19.4191 14.8111 19.4256C12.9567 19.4321 11.0958 19.4256 9.24137 19.4256C9.1369 19.4256 9.0259 19.4191 8.92795 19.393C8.72554 19.3407 8.60801 19.1971 8.60801 18.9816C8.60801 18.7727 8.76472 18.6159 8.97366 18.5898C9.05202 18.5768 9.1369 18.5833 9.21526 18.5833C10.1425 18.5768 11.0631 18.5768 11.9838 18.5768ZM7.07356 23.7416C7.08009 23.6241 7.0148 23.5392 6.94297 23.4674C5.65665 22.1746 4.3638 20.8817 3.07747 19.5954C2.88159 19.3995 2.74447 19.393 2.54858 19.5888C2.1764 19.948 1.81727 20.3071 1.45814 20.6793C1.28185 20.8621 1.28185 21.0319 1.46467 21.2147C2.751 22.5076 4.04385 23.8004 5.33017 25.0867C5.52606 25.2826 5.65665 25.2826 5.85254 25.0933C6.21819 24.7341 6.57732 24.3685 6.94297 24.0028C7.0148 23.9245 7.07356 23.8461 7.07356 23.7416Z" fill="#1E7DBC"/>
<path d="M13.4005 0.960037C13.5898 1.06451 13.6682 1.23428 13.6617 1.44975C13.6551 1.5934 13.6682 1.74358 13.6551 1.88723C13.6355 2.1223 13.4854 2.27901 13.2764 2.29207C13.0609 2.31166 12.8716 2.18106 12.8455 1.95253C12.8063 1.59993 12.7149 1.22775 13.0609 0.960037C13.1719 0.960037 13.2829 0.960037 13.4005 0.960037Z" fill="#1E7DBC"/>
<path d="M13.2504 15.5601C12.8913 15.5601 12.5322 15.5667 12.173 15.5601C11.4678 15.5471 11.0369 15.1096 11.0369 14.4044C11.0369 13.9996 11.0369 13.5882 11.0369 13.1834C11.0369 12.9091 11.1348 12.6871 11.3764 12.5435C11.5397 12.4455 11.5462 12.328 11.4874 12.1713C11.3764 11.8644 11.1414 11.6881 10.8737 11.5379C9.87464 10.9633 9.16945 10.1341 8.75808 9.06322C7.64806 6.1641 9.6461 2.93197 12.715 2.60549C15.1701 2.33778 17.6252 4.03546 17.9909 6.75176C18.2325 8.58003 17.4359 10.4214 15.7447 11.4661C15.477 11.6359 15.1766 11.7665 15.0395 12.0799C14.9546 12.2692 14.8763 12.4455 15.1505 12.5827C15.3464 12.6806 15.4313 12.8961 15.4443 13.1181C15.4705 13.6078 15.4901 14.0975 15.4378 14.5872C15.3725 15.201 14.9481 15.5601 14.3278 15.5732C13.9687 15.5667 13.6095 15.5601 13.2504 15.5601ZM13.2439 12.4129C13.4724 12.4129 13.701 12.4129 13.9295 12.4129C14.0274 12.4129 14.1058 12.3933 14.1188 12.2758C14.2103 11.5771 14.6412 11.1396 15.2223 10.787C16.6719 9.899 17.3444 8.58656 17.1551 6.88888C16.907 4.6623 14.8436 3.1148 12.6432 3.46086C10.9977 3.72204 9.6461 5.0149 9.36533 6.60158C9.05844 8.31885 9.80281 9.95777 11.2981 10.8066C11.8662 11.1266 12.2514 11.564 12.3624 12.2105C12.3885 12.3606 12.4603 12.4194 12.6105 12.4129C12.8195 12.4064 13.0349 12.4129 13.2439 12.4129ZM13.2569 13.2683C12.8782 13.2683 12.493 13.2748 12.1143 13.2683C11.9641 13.2683 11.8857 13.3074 11.8857 13.4772C11.8923 13.8037 11.8857 14.1302 11.8857 14.4566C11.8857 14.6395 11.9772 14.7178 12.16 14.7178C12.8717 14.7178 13.59 14.7178 14.3017 14.7178C14.5041 14.7178 14.602 14.6264 14.602 14.424C14.602 14.1171 14.5955 13.8037 14.602 13.4968C14.6086 13.327 14.5367 13.2683 14.3735 13.2748C14.0078 13.2683 13.6357 13.2683 13.2569 13.2683Z" fill="#1E7DBC"/>
<path d="M19.1138 7.92056C19.0094 7.92056 18.8984 7.93362 18.7939 7.92056C18.5915 7.89444 18.4282 7.71161 18.4348 7.51573C18.4413 7.30678 18.5458 7.1566 18.7547 7.11089C18.9898 7.05866 19.2248 7.05866 19.4599 7.11089C19.6688 7.1566 19.8125 7.33943 19.7994 7.52879C19.7864 7.73773 19.6231 7.90097 19.4011 7.92709C19.3097 7.93362 19.2118 7.92709 19.1138 7.92056Z" fill="#1E7DBC"/>
<path d="M10.4232 3.056C10.0706 3.04947 9.63314 2.27245 9.81596 1.96556C9.94003 1.75009 10.2469 1.68479 10.4232 1.86109C10.6191 2.05698 10.7627 2.29857 10.8346 2.57281C10.8999 2.82094 10.6844 3.06253 10.4232 3.056Z" fill="#1E7DBC"/>
<path d="M18.9769 4.42067C18.9769 4.66226 18.8136 4.78633 18.6243 4.87774C18.3957 4.99527 18.1868 5.22381 17.8864 5.05404C17.6318 4.90386 17.6056 4.55126 17.8472 4.37496C18.017 4.2509 18.2064 4.1399 18.3957 4.06155C18.683 3.94401 18.9703 4.13337 18.9769 4.42067Z" fill="#1E7DBC"/>
<path d="M7.96812 11.009C7.74612 10.9894 7.609 10.911 7.5437 10.7478C7.47188 10.565 7.51106 10.3821 7.67429 10.2646C7.85059 10.1405 8.04648 10.0295 8.24237 9.93813C8.41213 9.85977 8.5819 9.91201 8.70596 10.0622C8.8235 10.1993 8.84961 10.3691 8.74514 10.5127C8.54273 10.7935 8.22931 10.898 7.96812 11.009Z" fill="#1E7DBC"/>
<path d="M16.7372 2.22676C16.6197 2.48141 16.5152 2.7883 16.254 2.99072C16.1104 3.10172 15.9471 3.08213 15.8035 2.97113C15.6598 2.86013 15.6011 2.70995 15.6533 2.54018C15.7317 2.31165 15.8623 2.09617 16.0124 1.90681C16.13 1.75663 16.3063 1.73704 16.4826 1.80887C16.6458 1.86764 16.7176 2.01129 16.7372 2.22676Z" fill="#1E7DBC"/>
<path d="M7.99421 4.02893C8.2358 4.11381 8.52963 4.23787 8.73205 4.49252C8.84305 4.62964 8.81693 4.80594 8.71246 4.94959C8.60146 5.08671 8.45128 5.15854 8.28151 5.09977C8.04644 5.01489 7.82444 4.8843 7.63508 4.72106C7.49796 4.60353 7.4849 4.43376 7.5502 4.27052C7.60896 4.10075 7.74608 4.0224 7.99421 4.02893Z" fill="#1E7DBC"/>
<path d="M7.35412 7.92059C7.24965 7.92059 7.13865 7.93365 7.0407 7.92059C6.83829 7.88141 6.70117 7.76388 6.69464 7.54188C6.68158 7.31334 6.79258 7.16316 7.01458 7.11745C7.24965 7.06522 7.48471 7.06522 7.71325 7.11745C7.92872 7.16316 8.05278 7.31334 8.03973 7.53535C8.02667 7.76388 7.88954 7.89447 7.67407 7.92712C7.56307 7.93365 7.45859 7.92059 7.35412 7.92059Z" fill="#1E7DBC"/>
<path d="M18.9835 10.5846C18.977 10.8784 18.6831 11.0808 18.4285 10.9764C18.2261 10.8915 18.0367 10.774 17.8604 10.6499C17.6711 10.5193 17.6449 10.2908 17.7559 10.1079C17.8669 9.93164 18.0694 9.85982 18.2652 9.95123C18.4481 10.0361 18.6244 10.1406 18.7941 10.2516C18.9182 10.3299 18.977 10.454 18.9835 10.5846Z" fill="#1E7DBC"/>
</svg>
