<svg width="24" height="26" viewBox="0 0 24 26" fill="none" xmlns="http://www.w3.org/2000/svg">
<path d="M5.14154 16.0897H6.65894C7.4973 16.0897 8.17634 15.4099 8.17634 14.5723V13.0549C8.17634 12.2166 7.4973 11.5375 6.65894 11.5375H5.14154C4.30318 11.5375 3.62415 12.2166 3.62415 13.0549V14.5723C3.62415 15.4099 4.30318 16.0897 5.14154 16.0897ZM5.14154 13.0549H6.65894V14.5723H5.14154V13.0549ZM17.2807 22.1593H18.7981C19.6365 22.1593 20.3155 21.4802 20.3155 20.6419V19.1245C20.3155 18.2862 19.6365 17.6072 18.7981 17.6072H17.2807C16.4431 17.6072 15.7633 18.2862 15.7633 19.1245V20.6419C15.7633 21.4802 16.4424 22.1593 17.2807 22.1593ZM17.2807 19.1245H18.7981V20.6419H17.2807V19.1245ZM17.2807 16.0897H18.7981C19.6365 16.0897 20.3155 15.4099 20.3155 14.5723V13.0549C20.3155 12.2166 19.6365 11.5375 18.7981 11.5375H17.2807C16.4431 11.5375 15.7633 12.2166 15.7633 13.0549V14.5723C15.7633 15.4099 16.4424 16.0897 17.2807 16.0897ZM17.2807 13.0549H18.7981V14.5723H17.2807V13.0549ZM20.3155 2.43317H17.2807V1.67447C17.2807 1.25566 16.9408 0.915771 16.5221 0.915771C16.1033 0.915771 15.7634 1.25566 15.7634 1.67447V2.43317H8.17637V1.67447C8.17634 1.25566 7.83645 0.915771 7.41764 0.915771C6.99883 0.915771 6.65894 1.25566 6.65894 1.67447V2.43317H3.62415C1.94821 2.43317 0.589355 3.79202 0.589355 5.46796V22.1593C0.589355 23.8353 1.94821 25.1942 3.62415 25.1942H20.3155C21.9914 25.1942 23.3503 23.8353 23.3503 22.1593V5.46796C23.3503 3.79198 21.9915 2.43317 20.3155 2.43317ZM21.8329 22.1593C21.8329 22.9977 21.1539 23.6767 20.3155 23.6767H3.62415C2.78579 23.6767 2.10675 22.9969 2.10675 22.1593V8.50275H21.8329V22.1593H21.8329ZM21.8329 6.98536H2.10675V5.46796C2.10675 4.6296 2.78579 3.95056 3.62415 3.95056H6.65894V4.70926C6.65894 5.12807 6.99883 5.46796 7.41764 5.46796C7.83645 5.46796 8.17634 5.12807 8.17634 4.70926V3.95056H15.7633V4.70926C15.7633 5.12807 16.1032 5.46796 16.522 5.46796C16.9408 5.46796 17.2807 5.12807 17.2807 4.70926V3.95056H20.3155C21.1539 3.95056 21.8329 4.6296 21.8329 5.46796V6.98536ZM11.2111 22.1593H12.7285C13.5669 22.1593 14.2459 21.4802 14.2459 20.6419V19.1245C14.2459 18.2862 13.5669 17.6072 12.7285 17.6072H11.2111C10.3735 17.6072 9.69373 18.2862 9.69373 19.1245V20.6419C9.69373 21.4802 10.3728 22.1593 11.2111 22.1593ZM11.2111 19.1245H12.7285V20.6419H11.2111V19.1245ZM11.2111 16.0897H12.7285C13.5669 16.0897 14.2459 15.4099 14.2459 14.5723V13.0549C14.2459 12.2166 13.5669 11.5375 12.7285 11.5375H11.2111C10.3735 11.5375 9.69373 12.2166 9.69373 13.0549V14.5723C9.69373 15.4099 10.3728 16.0897 11.2111 16.0897ZM11.2111 13.0549H12.7285V14.5723H11.2111V13.0549ZM5.14154 22.1593H6.65894C7.4973 22.1593 8.17634 21.4802 8.17634 20.6419V19.1245C8.17634 18.2862 7.4973 17.6072 6.65894 17.6072H5.14154C4.30318 17.6072 3.62415 18.2862 3.62415 19.1245V20.6419C3.62415 21.4802 4.30318 22.1593 5.14154 22.1593ZM5.14154 19.1245H6.65894V20.6419H5.14154V19.1245Z" fill="#1E7DBC"/>
</svg>
