<svg width="268" height="270" viewBox="0 0 268 270" fill="none" xmlns="http://www.w3.org/2000/svg">
<path opacity="0.1" d="M73.5 0C-33.9412 0 -121 87.0587 -121 194.417C-121 301.859 -33.9412 388.918 73.5 388.918C180.941 388.918 268 301.859 268 194.417V0H73.5ZM132.832 324.304V283.292C132.832 258.701 117.978 237.74 96.7707 228.663C98.9987 227.178 101.062 225.445 102.96 223.547C110.552 215.955 115.255 205.558 115.255 194.005C115.255 170.982 96.5231 152.25 73.5 152.25C50.3943 152.25 31.7448 170.982 31.7448 194.005C31.7448 208.446 39.0066 221.154 50.1468 228.581C28.9391 237.658 14.0855 258.7 14.0855 283.209V324.221C-32.1258 302.106 -64.0611 254.905 -64.0611 200.194C-64.0611 124.275 -2.50107 62.6328 73.5 62.6328C149.419 62.6328 210.979 124.193 210.979 200.194C210.979 254.987 179.043 302.106 132.832 324.304Z" fill="#1E7DBC"/>
</svg>
