<svg width="32" height="21" viewBox="0 0 32 21" fill="none" xmlns="http://www.w3.org/2000/svg">
<path d="M30.9088 9.65547C28.0159 4.01093 22.2887 0.191895 15.7308 0.191895C9.17299 0.191895 3.44416 4.0136 0.552803 9.656C0.430769 9.8974 0.367187 10.1641 0.367188 10.4346C0.367187 10.7051 0.430769 10.9718 0.552803 11.2132C3.44576 16.8577 9.17299 20.6767 15.7308 20.6767C22.2887 20.6767 28.0175 16.855 30.9088 11.2126C31.0309 10.9712 31.0945 10.7045 31.0945 10.4341C31.0945 10.1636 31.0309 9.89686 30.9088 9.65547ZM15.7308 18.1161C14.2115 18.1161 12.7263 17.6656 11.463 16.8215C10.1998 15.9774 9.21516 14.7777 8.63374 13.374C8.05232 11.9704 7.90019 10.4258 8.1966 8.93567C8.493 7.44554 9.22462 6.07677 10.2989 5.00245C11.3733 3.92813 12.742 3.19651 14.2322 2.9001C15.7223 2.6037 17.2669 2.75583 18.6705 3.33724C20.0742 3.91866 21.2739 4.90326 22.118 6.16653C22.9621 7.4298 23.4127 8.915 23.4127 10.4343C23.4131 11.4432 23.2148 12.4424 22.8289 13.3746C22.443 14.3068 21.8772 15.1539 21.1638 15.8673C20.4504 16.5807 19.6033 17.1465 18.6711 17.5324C17.7389 17.9183 16.7398 18.1166 15.7308 18.1161ZM15.7308 5.31311C15.2737 5.31949 14.8196 5.3875 14.3806 5.51529C14.7424 6.00696 14.9161 6.61202 14.87 7.22073C14.824 7.82944 14.5613 8.40149 14.1296 8.83314C13.698 9.26479 13.1259 9.52746 12.5172 9.57351C11.9085 9.61956 11.3035 9.44594 10.8118 9.08413C10.5318 10.1156 10.5823 11.2089 10.9563 12.2102C11.3302 13.2115 12.0087 14.0703 12.8963 14.6657C13.7839 15.2611 14.8359 15.5632 15.9042 15.5295C16.9725 15.4958 18.0033 15.1278 18.8515 14.4776C19.6997 13.8273 20.3227 12.9274 20.6327 11.9045C20.9427 10.8817 20.9241 9.78733 20.5796 8.77557C20.2351 7.7638 19.5819 6.88555 18.7121 6.26443C17.8423 5.64331 16.7996 5.31059 15.7308 5.31311Z" fill="#1E7DBC"/>
</svg>
